<svg xmlns="http://www.w3.org/2000/svg" viewBox="0 0 100 100">
  <defs>
    <linearGradient id="bg" x1="0%" y1="0%" x2="100%" y2="100%">
      <stop offset="0%" stop-color="#0c1222"/>
      <stop offset="100%" stop-color="#060913"/>
    </linearGradient>
    <linearGradient id="accent" x1="0%" y1="0%" x2="100%" y2="100%">
      <stop offset="0%" stop-color="#3b82f6"/>
      <stop offset="100%" stop-color="#06b6d4"/>
    </linearGradient>
  </defs>
  <rect width="100" height="100" rx="22" fill="url(#bg)"/>
  <rect x="4" y="4" width="92" height="92" rx="18" fill="none" stroke="rgba(59,130,246,0.12)" stroke-width="1.5"/>
  <path d="M 50 20 A 30 30 0 1 0 50 80 A 30 30 0 1 0 50 20 Z" fill="none" stroke="rgba(59,130,246,0.1)" stroke-width="3"/>
  <path d="M 50 30 A 20 20 0 1 0 50 70 A 20 20 0 1 0 50 30 Z" fill="none" stroke="rgba(59,130,246,0.06)" stroke-width="1.5"/>
  <path d="M 44 33 L 62 50 L 50 50 L 56 68 L 38 51 L 50 51 Z" fill="url(#accent)"/>
</svg>
